<svg width="393" height="288" viewBox="0 0 393 288" fill="none" xmlns="http://www.w3.org/2000/svg">
<g clip-path="url(#clip0_16_652)">
<path d="M153.195 162.402C168.389 157.81 184.246 155.513 200.125 155.059C208.042 154.831 215.982 155.104 223.831 156.037C230.97 156.9 238.223 158.174 245.042 160.538C250.991 162.584 257.307 166.495 256.734 173.611C256.757 173.406 256.78 173.225 256.78 173.02L256.917 172.133C258.496 162.834 260.098 153.558 261.677 144.259C261.883 143.259 261.906 143.1 261.745 143.759C261.791 143.577 261.837 143.372 261.883 143.191C260.716 147.351 257.97 150.739 255.293 154.035C252.661 157.264 249.939 160.515 248.062 164.244C247.101 166.177 246.392 168.041 245.934 170.133C244.607 176.226 243.738 182.592 242.708 188.73C241.862 193.732 240.763 198.825 240.328 203.895C239.985 207.852 241.129 211.58 243.806 214.559C249.366 220.742 258.29 222.448 266.276 222.47C274.628 222.47 283.094 220.993 291.377 222.652C295.61 223.516 299.729 225.267 302.704 228.45C305.701 231.656 308.561 236.453 308.241 240.977C308.264 240.773 308.287 240.591 308.287 240.386C308.63 238.158 308.996 235.953 309.339 233.725C310.735 225.835 312.108 217.923 313.504 210.034C313.481 210.148 313.458 210.239 313.435 210.352C313.481 210.17 313.527 209.966 313.572 209.784C311.673 217.059 303.093 218.06 296.823 218.424C296.663 218.424 295.771 223.812 295.908 223.13C295.221 226.927 294.558 230.724 293.917 234.543C293.276 238.34 292.613 242.16 292.018 245.957C291.949 246.434 291.377 250.708 291.331 250.708C295.176 250.481 299.226 250.276 302.681 248.458C304.145 247.685 305.495 246.616 306.525 245.297C308.103 243.251 308.401 240.795 308.859 238.318C310.255 230.724 311.559 223.107 312.794 215.491C313.206 212.921 313.938 210.193 313.824 207.556C313.732 205.646 313.069 203.804 312.245 202.099C310.621 198.803 308.378 195.733 305.289 193.664C299.02 189.504 290.919 189.39 283.666 189.708C276.001 190.049 268.13 190.958 260.624 188.844C256.597 187.707 252.639 185.729 249.733 182.683C246.826 179.636 245.545 175.794 245.889 171.61C245.865 171.815 245.843 171.997 245.843 172.201C246.415 166.904 245.591 171.656 243.371 186.434C240.557 201.122 239.756 205.85 240.969 200.667C240.923 200.849 240.877 201.053 240.831 201.235C242.067 196.415 244.927 192.346 248.017 188.503C250.991 184.797 254.469 181.137 256.071 176.567C256.849 174.338 257.169 171.929 257.581 169.633C259.228 160.561 261.013 151.421 262.18 142.281C262.455 140.053 262.295 137.87 261.265 135.847C259.617 132.641 256.368 130.595 253.119 129.208C249.229 127.526 244.996 126.548 240.855 125.661C235.721 124.571 230.525 123.796 225.295 123.342C214.815 122.387 204.244 122.569 193.764 123.501C181.912 124.547 170.15 126.707 158.755 130.14C158.481 130.231 157.726 135.415 157.84 134.846C157.153 138.643 156.49 142.44 155.849 146.26C155.209 150.057 154.545 153.877 153.95 157.673C153.813 158.514 153.676 159.356 153.561 160.197C153.355 160.902 153.264 161.652 153.195 162.402Z" fill="#E1E4E5"/>
<path d="M261.583 144.143C260.272 147.836 257.764 150.955 255.302 153.983C253.14 156.667 250.885 159.351 249.113 162.31C249.113 162.31 249.136 162.31 249.136 162.333H249.09C248.699 162.975 248.354 163.618 248.009 164.283C247.042 166.233 246.375 168.274 245.915 170.385C245.915 170.431 245.892 170.499 245.892 170.545C245.869 170.82 245.846 171.256 245.777 171.876C245.478 176.028 246.743 179.858 249.642 182.909C250.191 183.48 250.776 184.016 251.391 184.515C253.278 182.129 255.003 179.606 255.992 176.739C256.775 174.491 257.097 172.059 257.511 169.742C259.168 160.59 260.962 151.368 262.136 142.147C262.159 142.055 262.159 141.94 262.159 141.849C261.998 142.606 261.768 143.386 261.583 144.143ZM261.791 143.638C261.836 143.431 261.86 143.316 261.883 143.271C261.836 143.385 261.814 143.523 261.791 143.638Z" fill="url(#paint0_linear_16_652)"/>
<path d="M313.606 210.423C313.583 210.492 313.583 210.538 313.56 210.606C313.583 210.492 313.606 210.401 313.629 210.287C313.629 210.332 313.629 210.378 313.606 210.423C313.629 210.287 313.675 210.15 313.698 210.036C311.796 217.337 303.203 218.341 296.924 218.706C296.763 218.706 295.87 224.114 296.007 223.429C295.962 223.703 295.916 223.954 295.87 224.228C295.916 224.251 295.984 224.274 296.03 224.296C296.007 224.319 295.984 224.342 295.962 224.342C295.916 224.365 295.87 224.411 295.824 224.434C295.2 227.915 294.589 231.398 293.991 234.884C293.349 238.694 292.685 242.528 292.089 246.338C292.02 246.817 291.447 251.107 291.402 251.107C295.251 250.879 299.307 250.674 302.767 248.848C304.234 248.073 305.586 247 306.617 245.676C308.198 243.623 308.496 241.159 308.954 238.671C310.352 231.05 311.658 223.406 312.896 215.763C313.193 213.937 313.629 212.043 313.835 210.172C313.766 210.309 313.698 210.446 313.606 210.583V210.423Z" fill="url(#paint1_linear_16_652)"/>
<path d="M230.506 208.139C215.312 212.732 199.455 215.028 183.575 215.483C175.658 215.71 167.718 215.437 159.87 214.505C152.731 213.641 145.477 212.368 138.659 210.003C132.71 207.957 126.394 204.047 126.966 196.93C126.944 197.135 126.92 197.317 126.92 197.521L126.783 198.408C125.204 207.707 123.603 216.983 122.024 226.282C121.818 227.282 121.795 227.442 121.955 226.782C121.91 226.964 121.864 227.169 121.818 227.351C122.985 223.19 125.731 219.803 128.408 216.506C131.039 213.277 133.762 210.026 135.639 206.297C136.6 204.365 137.309 202.501 137.767 200.409C139.094 194.316 139.963 187.949 140.993 181.811C141.839 176.809 142.937 171.716 143.372 166.646C143.716 162.69 142.571 158.961 139.894 155.983C134.334 149.799 125.41 148.093 117.425 148.071C109.073 148.071 100.607 149.549 92.3234 147.889C88.0905 147.025 83.9718 145.274 80.997 142.091C77.9995 138.886 75.1394 134.088 75.4596 129.564C75.437 129.769 75.4138 129.95 75.4138 130.155C75.0709 132.383 74.7049 134.588 74.3616 136.816C72.9656 144.706 71.5927 152.618 70.1971 160.507C70.2198 160.393 70.2429 160.303 70.2656 160.189C70.2198 160.371 70.174 160.575 70.1282 160.757C72.0276 153.482 80.6083 152.482 86.8777 152.118C87.0378 152.118 87.9304 146.729 87.7929 147.411C88.4796 143.615 89.1432 139.818 89.7836 135.998C90.4244 132.201 91.088 128.381 91.683 124.585C91.7515 124.107 92.3234 119.833 92.3692 119.833C88.5254 120.06 84.4752 120.265 81.0201 122.084C79.5556 122.857 78.2054 123.925 77.1759 125.244C75.5971 127.29 75.2995 129.745 74.8419 132.224C73.4505 139.819 72.1386 147.428 70.9065 155.051C70.4947 157.62 69.7622 160.348 69.8765 162.985C69.9681 164.895 70.6316 166.737 71.4557 168.442C73.0803 171.739 75.3227 174.808 78.4113 176.877C84.6812 181.038 92.781 181.152 100.035 180.833C107.7 180.492 115.571 179.583 123.076 181.697C127.104 182.834 131.062 184.812 133.968 187.859C136.874 190.905 138.155 194.748 137.812 198.931C137.835 198.726 137.858 198.544 137.858 198.34C137.286 203.637 138.109 198.886 140.329 184.107C143.143 169.42 143.944 164.691 142.732 169.874C142.777 169.693 142.823 169.488 142.869 169.306C141.634 174.126 138.773 178.196 135.684 182.038C132.71 185.744 129.232 189.405 127.63 193.975C126.852 196.202 126.531 198.613 126.119 200.909C124.472 209.981 122.688 219.121 121.521 228.26C121.246 230.488 121.406 232.671 122.436 234.695C124.083 237.9 127.332 239.946 130.581 241.333C134.472 243.016 138.705 243.994 142.846 244.88C147.98 245.971 153.176 246.745 158.406 247.199C168.885 248.154 179.457 247.972 189.936 247.04C201.789 245.994 213.55 243.834 224.945 240.401C225.22 240.31 225.975 235.127 225.86 235.695C226.547 231.898 227.211 228.101 227.851 224.281C228.492 220.485 229.155 216.665 229.75 212.868C229.888 212.027 230.025 211.186 230.14 210.344C230.346 209.64 230.437 208.889 230.506 208.139Z" fill="#E1E4E5"/>
<path d="M122.117 226.399C123.429 222.706 125.936 219.586 128.398 216.558C130.561 213.874 132.816 211.19 134.587 208.231C134.587 208.231 134.565 208.231 134.565 208.208H134.61C135.002 207.566 135.347 206.924 135.692 206.258C136.658 204.309 137.325 202.267 137.785 200.157C137.785 200.111 137.809 200.042 137.809 199.996C137.832 199.721 137.855 199.285 137.924 198.665C138.223 194.514 136.957 190.683 134.058 187.632C133.509 187.061 132.925 186.525 132.31 186.026C130.423 188.411 128.697 190.935 127.708 193.802C126.926 196.05 126.604 198.482 126.189 200.799C124.533 209.951 122.738 219.173 121.565 228.395C121.542 228.486 121.542 228.601 121.542 228.693C121.703 227.936 121.933 227.156 122.117 226.399ZM121.91 226.904C121.864 227.11 121.841 227.225 121.818 227.27C121.864 227.156 121.887 227.018 121.91 226.904Z" fill="url(#paint2_linear_16_652)"/>
<path d="M70.0948 160.118C70.1174 160.049 70.1174 160.004 70.1406 159.936C70.1174 160.049 70.0948 160.14 70.0716 160.255C70.0716 160.209 70.0716 160.164 70.0948 160.118C70.0716 160.255 70.0258 160.392 70.0032 160.506C71.905 153.204 80.4978 152.2 86.7768 151.835C86.9369 151.835 87.8309 146.427 87.693 147.112C87.7388 146.838 87.7846 146.587 87.8309 146.313C87.7846 146.291 87.7161 146.268 87.6703 146.245C87.693 146.222 87.7161 146.199 87.7388 146.199C87.7851 146.176 87.8309 146.131 87.8767 146.108C88.5009 142.627 89.1119 139.143 89.7096 135.658C90.3515 131.847 91.016 128.014 91.6115 124.203C91.6805 123.724 92.2534 119.434 92.2992 119.434C88.4496 119.662 84.3936 119.868 80.9332 121.693C79.4668 122.469 78.1146 123.541 77.0836 124.865C75.5024 126.918 75.2044 129.383 74.7463 131.869C73.3483 139.491 72.0425 147.135 70.8051 154.778C70.5071 156.604 70.0716 158.498 69.8652 160.369C69.9342 160.232 70.0031 160.095 70.0948 159.958V160.118Z" fill="url(#paint3_linear_16_652)"/>
<path d="M201.683 217.114C231.809 217.114 256.231 192.804 256.231 162.817C256.231 132.83 231.809 108.52 201.683 108.52C171.557 108.52 147.135 132.83 147.135 162.817C147.135 192.804 171.557 217.114 201.683 217.114Z" fill="#AE8BDF"/>
<path d="M158.886 144.416C155.428 143.253 152.431 140.776 150.681 137.6C150.187 136.723 149.783 135.717 149.916 134.721C149.95 134.518 150.001 134.278 150.185 134.183C150.35 134.088 150.573 134.14 150.758 134.193C156.534 135.744 162.64 138.358 168.702 138.082C168.979 138.078 169.257 138.055 169.499 138.162C169.796 138.286 169.986 138.56 170.119 138.852C170.578 139.802 170.975 141.6 170.825 142.67C170.641 143.943 169.405 144.128 168.318 144.402C165.223 145.185 161.972 145.455 158.886 144.416Z" fill="#F8AE9D"/>
<path d="M158.352 137.281C157.887 137.086 157.403 136.89 156.904 136.88C156.404 136.869 155.853 137.135 155.694 137.616C155.588 137.949 155.686 138.297 155.82 138.608C156.184 139.413 156.823 140.065 157.497 140.644C160.082 142.814 163.395 144.127 166.782 144.333C168.282 144.421 169.852 144.287 171.172 143.586C170.513 142.786 170.643 141.642 170.573 140.631C170.361 137.67 167.826 138.794 165.791 138.789C163.238 138.735 160.697 138.24 158.352 137.281Z" fill="#F8AE9D"/>
<path d="M235.731 115.382L235.848 115.712C236.66 118.056 237.289 120.477 237.548 122.958C238.025 127.516 237.126 132.85 233.681 136.161C229.088 140.574 221.719 141.256 215.729 140.206C213.277 139.779 210.969 138.758 209.008 137.233C207.056 138.993 204.958 140.921 203.213 142.88C199.706 141.659 196.369 140.003 193.28 137.95C185.97 141.282 178.514 143.53 170.641 145.158C169.742 142.93 169.11 140.604 168.76 138.228C168.699 137.843 173.605 134.547 174.171 134.078C175.87 132.653 179.408 129.396 179.408 129.396C179.408 129.396 174.948 125.616 172.998 123.842C170.934 121.997 168.954 120.062 167.065 118.041C165.504 116.37 163.98 114.608 163.023 112.523C162.067 110.458 161.715 108.015 162.515 105.867C165.039 99.1833 175.228 101.533 179.961 103.836C183.874 105.747 187.301 108.53 190.599 111.352C191.929 112.473 193.241 113.631 194.535 114.772C195.555 113.725 196.681 112.365 197.644 111.263C198.68 110.07 199.865 108.948 201.297 108.245C202.802 107.485 204.191 107.593 205.796 107.366C206.516 107.264 207.215 107.051 207.916 106.93C210.019 106.548 212.244 106.956 214.092 108.033C215.846 109.055 217.27 110.268 219.329 110.66C221.666 111.103 224.38 110.841 226.724 110.53C228.828 110.24 230.967 109.766 233.063 110.176C233.935 110.347 234.267 111.557 234.556 112.252C234.941 113.259 235.345 114.302 235.731 115.382ZM217.16 38.2877C217.16 38.2877 222.819 37.3915 224.339 47.3357C226.027 58.3901 230.536 56.5713 237.696 65.5478C241.881 70.7928 237.477 80.0558 228.528 79.872C219.579 79.6929 211.497 77.1173 206.349 78.2193C201.201 79.3214 200.919 66.1973 205.998 62.148C211.077 58.0987 200.248 46.4712 206.847 41.2929C213.445 36.1152 217.16 38.2877 217.16 38.2877Z" fill="#31446C"/>
<path d="M250.986 82.1353C251.502 81.0797 251.47 79.8533 251.284 78.709C250.477 73.7972 247.019 69.6922 243.055 66.6845C239.078 63.6687 234.526 61.5159 230.342 58.8135C229.256 58.1098 228.168 57.3519 226.921 56.9717C225.674 56.5911 224.225 56.6324 223.196 57.4325C222.469 57.9941 222.049 58.862 221.804 59.7308C221.269 61.6321 221.474 63.6457 221.801 65.5743C222.209 68.0069 222.809 70.4146 223.794 72.6504C224.583 74.4543 225.869 76.3105 227.8 76.6637C228.359 78.8194 229.509 80.8397 231.123 82.3853C232.969 84.1575 235.31 85.3162 237.738 86.126C239.976 86.8728 242.424 87.361 244.675 86.6636C246.011 86.2575 247.187 85.4756 248.338 84.6783C249.365 83.9986 250.431 83.2551 250.986 82.1353ZM230.761 78.8597L229.439 76.7722C229.719 76.7966 229.994 76.8613 230.255 76.9642C230.981 77.2767 231.418 78.4138 230.761 78.8597Z" fill="#31446C"/>
<path d="M206.281 47.0323C206.213 47.4014 206.2 47.7883 206.226 48.2294C206.375 50.8078 206.932 53.3466 207.875 55.7525C208.452 57.1795 209.158 58.5864 210.156 59.7682C210.57 60.2587 211.04 60.7118 211.653 60.8866C212.284 61.0613 213.08 61.0862 213.706 60.9293C214.258 63.2035 214.028 67.4966 212.056 69.1094C211.452 69.5971 210.736 69.9029 210.019 70.1712C208.621 70.7078 207.166 71.1163 205.71 71.4331C204.051 71.7893 202.243 72.0562 201.078 73.2706C200.932 73.4198 200.787 73.6243 200.846 73.8259C200.885 73.9546 200.979 74.0448 201.091 74.1168C202.008 74.8579 203.143 75.264 204.276 75.6518C206.266 76.3214 208.309 76.8797 210.386 77.2531C212.556 77.6438 214.796 77.831 216.994 77.5954C218.692 77.4038 220.369 76.9733 221.91 76.2139C223.526 75.4162 225.18 74.7653 226.852 74.0035C228.266 73.3565 229.66 72.6173 231.191 72.3547C230.467 70.9848 228.958 70.2163 227.454 69.8525C225.951 69.5069 224.378 69.4757 222.857 69.1858C222.356 69.0826 221.855 68.9616 221.425 68.6549C220.247 67.8077 220.57 65.9246 220.551 64.6915L220.492 60.7901C220.666 58.9277 221.438 57.3701 222.115 55.6661C223.148 53.0544 223.361 50.0875 222.451 47.4134C221.541 44.7581 219.472 42.4512 216.813 41.5157C214.154 40.5802 210.962 41.1072 208.921 43.0526C207.626 44.3054 206.571 45.4267 206.281 47.0323Z" fill="#F8AE9D"/>
<path d="M214.458 38.735C211.808 38.4408 209.393 39.7325 207.603 41.735C206.097 43.4136 205.211 45.6293 205.256 47.8555C205.262 48.1737 205.298 48.5198 205.478 48.8059C205.957 49.4904 206.998 49.2384 207.777 48.9336C209.045 48.4454 209.99 47.7326 211.14 47.1312C212.29 46.5298 213.687 46.6176 214.716 45.7872C215.688 44.987 219.025 43.3008 219.115 41.9976C219.228 40.405 216.296 39.1037 215.071 38.8392C214.895 38.7845 214.691 38.7595 214.458 38.735Z" fill="#31446C"/>
<path d="M222.093 42.3413C224.334 43.7799 225.386 46.3004 225.503 48.9783C225.604 51.2266 224.884 53.5008 223.436 55.1986C223.229 55.441 222.982 55.6867 222.661 55.7947C221.855 56.0242 221.208 55.1741 220.799 54.4483C220.125 53.2723 219.845 52.1256 219.335 50.9362C218.826 49.7467 217.687 48.9365 217.417 47.6453C217.171 46.4136 215.655 43.0085 216.413 41.9415C217.336 40.6354 220.434 41.4711 221.553 42.0365C221.723 42.1047 221.897 42.2141 222.093 42.3413Z" fill="#31446C"/>
<path d="M202.16 72.7018C201.806 72.5415 201.382 72.6581 201.146 72.9749C198.503 76.6599 197.482 81.2775 196.588 85.7275C195.574 90.7872 194.672 95.8632 193.805 100.939C193.754 101.197 193.721 101.474 193.836 101.712C193.951 101.949 194.212 102.074 194.454 102.181C195.981 102.913 197.527 103.626 199.055 104.357C200.703 100.624 201.892 96.7053 202.594 92.6875C203.575 95.1581 205.346 97.3037 207.605 98.7053C205.922 101.105 203.85 105.905 201.829 108.016C201.52 108.352 199.607 107.828 199.179 107.688C198.914 108.446 200.159 107.636 200.152 108.409C201.302 108.576 202.77 107.891 203.952 107.744C205.377 107.578 206.815 107.569 208.242 107.716C210.613 107.975 212.918 108.713 215.025 109.823C216.072 110.377 217.077 111.008 218.031 111.71C218.855 112.324 220.892 113.766 220.892 113.766C221.042 113.874 221.743 113.716 221.908 113.677C222.388 113.596 222.868 113.533 223.366 113.489C224.592 113.394 225.812 113.234 227.021 113.01C229.437 112.569 231.812 111.888 234.091 110.952C234.311 110.783 233.528 109.175 233.486 108.863C233.528 109.156 238.016 108.794 238.459 108.714C240.229 108.356 242.02 108.163 243.79 107.786C242.997 100.692 240.821 93.84 238.683 87.0427C237.847 84.3672 236.992 81.6927 235.807 79.1703C234.546 76.4827 232.917 73.9671 230.959 71.7322C230.903 71.6779 230.81 71.6424 230.736 71.6621C229.797 71.8973 224.067 73.3647 221.216 74.4202C219.764 74.976 218.292 75.4771 216.802 75.9783C216.213 76.1712 215.605 76.3642 214.995 76.3551C214.588 76.3431 214.18 76.2571 213.79 76.1707C209.819 75.2919 205.847 74.3395 202.16 72.7018Z" fill="#AE8BDF"/>
<path d="M228.009 86.8358C228.172 87.8457 228.391 88.8734 228.61 89.8824C229.142 92.1725 229.825 94.4253 230.654 96.6264C231.078 97.7246 231.52 98.8037 232.017 99.8827C232.266 100.413 232.514 100.943 232.782 101.472C232.915 101.728 233.048 102.002 233.182 102.258C233.296 102.477 233.429 102.678 233.542 102.878C232.747 102.854 228.82 103.079 228.008 103.147" stroke="#AE8BDF" stroke-width="1.376" stroke-miterlimit="10" stroke-linecap="round"/>
<path d="M227.88 103.94C227.962 104.454 228.063 104.968 228.181 105.481L228.538 107.023C228.656 107.463 228.923 108.011 228.93 108.471C228.929 108.379 225.78 108.114 225.484 108.081C222.206 107.763 218.911 107.573 215.634 107.365C213.505 107.232 211.416 107.281 209.289 107.295C208.66 107.305 207.92 107.243 207.579 106.732C207.295 106.295 207.527 105.739 207.299 105.337C207.152 105.376 205.438 105.807 205.456 105.77C205.388 106.158 205.253 106.97 204.848 107.16C204.701 107.218 204.554 107.238 204.406 107.24C204.184 107.244 203.962 107.21 203.739 107.177C203.705 107.177 203.672 107.164 203.646 107.141C203.609 107.105 203.645 107.049 203.681 106.993C204.185 106.252 204.449 105.374 204.438 104.478C204.969 104.121 205.499 103.707 205.954 103.259C206.318 102.885 206.588 102.402 206.991 102.084C207.411 101.727 207.82 101.942 208.285 102.064C208.822 102.183 209.355 102.323 209.881 102.481C210.904 102.797 211.927 103.187 212.787 103.818C213.086 104.035 213.367 104.27 213.72 104.375C214.055 104.48 214.425 104.475 214.776 104.47C216.939 104.418 219.102 104.312 221.243 104.077C223.441 103.841 224.939 103.874 227.818 103.444C227.818 103.462 227.82 103.628 227.88 103.94Z" fill="#F8AE9D"/>
<path d="M204.059 86.6313C203.545 88.8618 203.163 91.1207 202.917 93.396" stroke="#AE8BDF" stroke-width="1.376" stroke-miterlimit="10" stroke-linecap="round"/>
<path d="M160.445 82.9604L166.794 111.141L214.998 110.413C214.972 108.756 213.602 107.414 211.919 107.44L200.4 107.614L194.659 81.6884C194.571 81.2808 194.343 80.9162 194.016 80.6562C193.688 80.3962 193.281 80.2567 192.862 80.2613L162.205 80.725C161.04 80.761 160.187 81.8233 160.445 82.9604Z" fill="#31446C"/>
<path d="M223.416 151.816C223.193 150.531 222.563 149.215 221.972 148.064C219.533 143.352 215.173 140.03 210.477 137.745C209.993 137.513 209.509 137.281 209.006 137.104C209.044 137.159 209.082 137.213 209.12 137.287L209.12 137.305L209.139 137.305C209.083 137.269 209.045 137.233 208.989 137.197C207.092 138.901 205.067 140.772 203.34 142.657C204.482 143.579 206.139 144.327 206.962 144.941C208.907 146.365 210.78 147.884 212.797 149.215C215.507 151.034 218.394 152.353 221.621 152.929C222.863 153.15 223.514 153.38 223.499 152.423C223.479 152.276 223.457 152.073 223.416 151.816Z" fill="#F8AE9D"/>
<path d="M220.27 148.108C219.013 145.753 217.062 143.96 214.93 142.372C213.433 141.253 211.846 140.246 210.332 139.22C209.902 138.932 209.058 138.153 208.331 137.777C206.817 139.144 205.267 140.585 203.866 142.079C208.495 144.881 212.62 148.537 217.699 150.522C218.164 150.699 218.648 150.876 219.147 150.887C219.646 150.898 220.18 150.687 220.469 150.278C220.922 149.645 220.632 148.784 220.27 148.108Z" fill="#F8AE9D"/>
<path d="M285.881 165.225C280.752 166.435 275.328 162.106 275.328 162.106C275.328 162.106 278.223 155.818 283.353 154.612C288.481 153.403 293.904 157.729 293.904 157.729C293.904 157.729 291.009 164.016 285.881 165.225Z" fill="url(#paint4_linear_16_652)"/>
<path d="M255.246 243.73C259.791 246.847 266.736 244.668 266.736 244.668C266.736 244.668 266.305 237.438 261.757 234.324C257.211 231.207 250.27 233.383 250.27 233.383C250.27 233.383 250.7 240.614 255.246 243.73Z" fill="url(#paint5_linear_16_652)"/>
<path d="M47.3281 186.665C54.5176 193.949 67.9624 192.413 67.9624 192.413C67.9624 192.413 69.7413 179.068 62.5451 171.788C55.3552 164.504 41.9171 166.036 41.9171 166.036C41.9171 166.036 40.1382 179.381 47.3281 186.665Z" fill="url(#paint6_linear_16_652)"/>
<path d="M323.418 143.445C319.331 143.445 316.018 146.743 316.018 150.812C316.018 154.88 319.331 158.179 323.418 158.179C327.505 158.179 330.819 154.88 330.819 150.812C330.819 146.743 327.505 143.445 323.418 143.445Z" fill="#AE8BDF"/>
<path d="M110.987 188.16C107.505 188.16 104.682 190.97 104.682 194.436C104.682 197.901 107.505 200.711 110.987 200.711C114.469 200.711 117.291 197.901 117.291 194.436C117.291 190.97 114.469 188.16 110.987 188.16Z" fill="#AE8BDF"/>
<path d="M95.358 107.902C92.1789 107.902 89.6017 105.336 89.6017 102.172C89.6017 99.0074 92.1789 96.4421 95.358 96.4421C98.5371 96.4421 101.114 99.0074 101.114 102.172C101.114 105.336 98.5371 107.902 95.358 107.902Z" fill="#AE8BDF"/>
<path d="M271.3 112.813C267.536 112.813 264.484 109.775 264.484 106.028C264.484 102.281 267.536 99.2434 271.3 99.2434C275.065 99.2434 278.117 102.281 278.117 106.028C278.117 109.775 275.065 112.813 271.3 112.813Z" fill="#AE8BDF"/>
<path d="M304.504 177.923C302.991 177.923 301.763 176.701 301.763 175.194C301.763 173.687 302.991 172.466 304.504 172.466C306.018 172.466 307.245 173.687 307.245 175.194C307.245 176.701 306.018 177.923 304.504 177.923Z" fill="#E1E4E5"/>
<path d="M85.1523 202.56C82.6222 202.56 80.5712 200.518 80.5712 198C80.5712 195.482 82.6222 193.44 85.1523 193.44C87.6824 193.44 89.7334 195.482 89.7334 198C89.7334 200.518 87.6824 202.56 85.1523 202.56Z" fill="#E1E4E5"/>
<path d="M306.585 119.21C304.83 119.21 303.408 117.795 303.408 116.048C303.408 114.302 304.83 112.886 306.585 112.886C308.339 112.886 309.762 114.302 309.762 116.048C309.762 117.795 308.339 119.21 306.585 119.21Z" fill="#E1E4E5"/>
<path d="M296.744 77.7927C294.065 77.7927 291.894 75.6316 291.894 72.9658C291.894 70.3 294.065 68.1389 296.744 68.1389C299.422 68.1389 301.593 70.3 301.593 72.9658C301.593 75.6316 299.422 77.7927 296.744 77.7927Z" fill="#E1E4E5"/>
<path d="M128.991 129.29C129.444 130.974 128.44 132.705 126.748 133.157C125.056 133.608 123.316 132.609 122.863 130.924C122.409 129.24 123.414 127.508 125.106 127.057C126.798 126.606 128.537 127.605 128.991 129.29Z" fill="#E1E4E5"/>
<path d="M66.8504 119.98C65.1851 119.98 63.8351 118.636 63.8351 116.978C63.8351 115.321 65.1851 113.977 66.8504 113.977C68.5157 113.977 69.8657 115.321 69.8657 116.978C69.8657 118.636 68.5157 119.98 66.8504 119.98Z" fill="#E1E4E5"/>
<path d="M339.907 87.7838H339.992C340.495 94.8754 345.793 94.9843 345.793 94.9843C345.793 94.9843 339.951 95.0981 339.951 103.292C339.951 95.0981 334.108 94.9843 334.108 94.9843C334.108 94.9843 339.404 94.8754 339.907 87.7838ZM264.253 51.768H264.338C264.84 58.8595 270.139 58.9685 270.139 58.9685C270.139 58.9685 264.296 59.0822 264.296 67.2763C264.296 59.0822 258.454 58.9685 258.454 58.9685C258.454 58.9685 263.75 58.8595 264.253 51.768ZM268.09 166.909H268.175C268.678 174.001 273.976 174.11 273.976 174.11C273.976 174.11 268.134 174.224 268.134 182.418C268.134 174.224 262.291 174.11 262.291 174.11C262.291 174.11 267.587 174.001 268.09 166.909ZM104.651 217.114H104.703C105.01 221.439 108.241 221.505 108.241 221.505C108.241 221.505 104.678 221.575 104.678 226.572C104.678 221.575 101.114 221.505 101.114 221.505C101.114 221.505 104.345 221.439 104.651 217.114ZM132.68 94.332H132.764C133.267 101.424 138.566 101.533 138.566 101.533C138.566 101.533 132.723 101.646 132.723 109.84C132.723 101.646 126.881 101.533 126.881 101.533C126.881 101.533 132.177 101.424 132.68 94.332ZM129.297 43.0368H129.396C129.986 51.5208 136.201 51.6514 136.201 51.6514C136.201 51.6514 129.348 51.7872 129.348 61.5902C129.348 51.7872 122.495 51.6514 122.495 51.6514C122.495 51.6514 128.707 51.5208 129.297 43.0368Z" fill="#E1E4E5"/>
</g>
<defs>
<linearGradient id="paint0_linear_16_652" x1="271.367" y1="162.272" x2="227.862" y2="162.467" gradientUnits="userSpaceOnUse">
<stop stop-color="white"/>
<stop offset="1" stop-color="#EEEEEE"/>
</linearGradient>
<linearGradient id="paint1_linear_16_652" x1="326.412" y1="229.696" x2="266.992" y2="230.073" gradientUnits="userSpaceOnUse">
<stop stop-color="white"/>
<stop offset="1" stop-color="#EEEEEE"/>
</linearGradient>
<linearGradient id="paint2_linear_16_652" x1="112.333" y1="208.269" x2="155.839" y2="208.074" gradientUnits="userSpaceOnUse">
<stop stop-color="white"/>
<stop offset="1" stop-color="#EEEEEE"/>
</linearGradient>
<linearGradient id="paint3_linear_16_652" x1="57.2879" y1="140.845" x2="116.709" y2="140.468" gradientUnits="userSpaceOnUse">
<stop stop-color="white"/>
<stop offset="1" stop-color="#EEEEEE"/>
</linearGradient>
<linearGradient id="paint4_linear_16_652" x1="266.569" y1="168.232" x2="311.387" y2="146.961" gradientUnits="userSpaceOnUse">
<stop stop-color="white"/>
<stop offset="1" stop-color="#EEEEEE"/>
</linearGradient>
<linearGradient id="paint5_linear_16_652" x1="272.952" y1="253.956" x2="237.344" y2="216.235" gradientUnits="userSpaceOnUse">
<stop stop-color="white"/>
<stop offset="1" stop-color="#EEEEEE"/>
</linearGradient>
<linearGradient id="paint6_linear_16_652" x1="76.0141" y1="211.546" x2="24.3764" y2="130.225" gradientUnits="userSpaceOnUse">
<stop stop-color="white"/>
<stop offset="1" stop-color="#EEEEEE"/>
</linearGradient>
<clipPath id="clip0_16_652">
<rect width="434" height="288" fill="white" transform="translate(-26)"/>
</clipPath>
</defs>
</svg>
